<svg id="Layer_1" data-name="Layer 1" xmlns="http://www.w3.org/2000/svg" viewBox="0 0 16 16"><defs><style>.cls-1{fill:#fff;}</style></defs><title>logo-white</title><rect class="cls-1" x="1" y="1" width="14" height="2" rx="0.33" ry="0.33"/><path class="cls-1" d="M14.67,0H1.33A1.34,1.34,0,0,0,0,1.33V2.67A1.34,1.34,0,0,0,1.33,4H14.67A1.34,1.34,0,0,0,16,2.67V1.33A1.34,1.34,0,0,0,14.67,0Z"/><rect class="cls-1" x="1" y="7" width="9" height="2" rx="0.33" ry="0.33"/><path class="cls-1" d="M9.67,6H1.33A1.34,1.34,0,0,0,0,7.33V8.67A1.34,1.34,0,0,0,1.33,10H9.67A1.34,1.34,0,0,0,11,8.67V7.33A1.34,1.34,0,0,0,9.67,6Z"/><rect class="cls-1" x="1" y="13" width="4" height="2" rx="0.33" ry="0.33"/><path class="cls-1" d="M4.67,12H1.33A1.34,1.34,0,0,0,0,13.33v1.34A1.34,1.34,0,0,0,1.33,16H4.67A1.34,1.34,0,0,0,6,14.67V13.33A1.34,1.34,0,0,0,4.67,12Z"/></svg>