<svg id="Layer_1" data-name="Layer 1" xmlns="http://www.w3.org/2000/svg" viewBox="0 0 16 16"><defs><style>.cls-1{fill:#fff;}</style></defs><title>logo-black</title><rect x="1" y="1" width="14" height="2" rx="0.33" ry="0.33"/><path class="cls-1" d="M18.67,4H5.33A1.34,1.34,0,0,0,4,5.33V6.67A1.34,1.34,0,0,0,5.33,8H18.67A1.34,1.34,0,0,0,20,6.67V5.33A1.34,1.34,0,0,0,18.67,4Z" transform="translate(-4 -4)"/><rect x="1" y="7" width="9" height="2" rx="0.33" ry="0.33"/><path class="cls-1" d="M13.67,10H5.33A1.34,1.34,0,0,0,4,11.33v1.34A1.34,1.34,0,0,0,5.33,14h8.34A1.34,1.34,0,0,0,15,12.67V11.33A1.34,1.34,0,0,0,13.67,10Z" transform="translate(-4 -4)"/><rect x="1" y="13" width="4" height="2" rx="0.33" ry="0.33"/><path class="cls-1" d="M8.67,16H5.33A1.34,1.34,0,0,0,4,17.33v1.34A1.34,1.34,0,0,0,5.33,20H8.67A1.34,1.34,0,0,0,10,18.67V17.33A1.34,1.34,0,0,0,8.67,16Z" transform="translate(-4 -4)"/></svg>